<svg xmlns="http://www.w3.org/2000/svg" xmlns:xlink="http://www.w3.org/1999/xlink" width="500" zoomAndPan="magnify" viewBox="0 0 375 374.999991" height="500" preserveAspectRatio="xMidYMid meet" version="1.0"><defs><g/></defs><g fill="#000000" fill-opacity="1"><g transform="translate(149.996809, 209.649581)"><g><path d="M 45.746094 -14.964844 C 35.296875 -14.964844 26.261719 -20.191406 25.695312 -31.625 L 4.234375 -31.625 C 4.375 -8.1875 23.71875 2.257812 44.898438 2.257812 C 64.523438 2.257812 84.710938 -6.070312 84.710938 -28.660156 C 84.710938 -65.230469 29.226562 -52.945312 29.226562 -70.027344 C 29.226562 -77.230469 37.554688 -80.054688 43.484375 -80.054688 C 54.074219 -80.054688 59.863281 -76.804688 60.992188 -66.78125 L 81.464844 -66.78125 C 80.757812 -88.664062 62.96875 -97.417969 43.203125 -97.417969 C 25.695312 -97.417969 7.339844 -88.101562 7.339844 -68.335938 C 7.339844 -32.898438 62.828125 -44.898438 62.828125 -26.261719 C 62.828125 -17.648438 52.378906 -14.964844 45.746094 -14.964844 Z M 45.746094 -14.964844 "/></g></g></g><g fill="#000000" fill-opacity="1"><g transform="translate(57.016865, 275.74047)"><g><path d="M 4.0625 -8.90625 C 5.21875 -8.90625 6.253906 -8.601562 7.171875 -8 L 6.546875 -6.6875 C 5.648438 -7.238281 4.785156 -7.515625 3.953125 -7.515625 C 3.503906 -7.515625 3.148438 -7.429688 2.890625 -7.265625 C 2.640625 -7.109375 2.515625 -6.878906 2.515625 -6.578125 C 2.515625 -6.285156 2.628906 -6.035156 2.859375 -5.828125 C 3.097656 -5.628906 3.394531 -5.476562 3.75 -5.375 C 4.101562 -5.28125 4.488281 -5.160156 4.90625 -5.015625 C 5.320312 -4.867188 5.703125 -4.710938 6.046875 -4.546875 C 6.398438 -4.378906 6.691406 -4.117188 6.921875 -3.765625 C 7.160156 -3.421875 7.28125 -3 7.28125 -2.5 C 7.28125 -1.726562 6.96875 -1.109375 6.34375 -0.640625 C 5.726562 -0.179688 4.925781 0.046875 3.9375 0.046875 C 3.269531 0.046875 2.617188 -0.078125 1.984375 -0.328125 C 1.347656 -0.578125 0.796875 -0.921875 0.328125 -1.359375 L 0.96875 -2.640625 C 1.414062 -2.222656 1.90625 -1.90625 2.4375 -1.6875 C 2.976562 -1.46875 3.488281 -1.359375 3.96875 -1.359375 C 4.488281 -1.359375 4.894531 -1.453125 5.1875 -1.640625 C 5.476562 -1.828125 5.625 -2.085938 5.625 -2.421875 C 5.625 -2.722656 5.503906 -2.976562 5.265625 -3.1875 C 5.035156 -3.394531 4.742188 -3.546875 4.390625 -3.640625 C 4.035156 -3.742188 3.648438 -3.863281 3.234375 -4 C 2.816406 -4.132812 2.429688 -4.28125 2.078125 -4.4375 C 1.734375 -4.59375 1.441406 -4.84375 1.203125 -5.1875 C 0.960938 -5.539062 0.84375 -5.960938 0.84375 -6.453125 C 0.84375 -7.203125 1.132812 -7.796875 1.71875 -8.234375 C 2.3125 -8.679688 3.09375 -8.90625 4.0625 -8.90625 Z M 4.0625 -8.90625 "/></g></g></g><g fill="#000000" fill-opacity="1"><g transform="translate(72.575159, 275.74047)"><g><path d="M 8.828125 0 L 7.375 0 L 2.65625 -6.34375 L 2.65625 0 L 1.15625 0 L 1.15625 -8.84375 L 2.625 -8.84375 L 7.375 -2.484375 L 7.375 -8.84375 L 8.828125 -8.84375 Z M 8.828125 0 "/></g></g></g><g fill="#000000" fill-opacity="1"><g transform="translate(90.28104, 275.74047)"><g><path d="M 7.484375 -7.515625 L 2.65625 -7.515625 L 2.65625 -5.125 L 6.984375 -5.125 L 6.984375 -3.78125 L 2.65625 -3.78125 L 2.65625 -1.34375 L 7.640625 -1.34375 L 7.640625 0 L 1.15625 0 L 1.15625 -8.84375 L 7.484375 -8.84375 Z M 7.484375 -7.515625 "/></g></g></g><g fill="#000000" fill-opacity="1"><g transform="translate(106.268856, 275.74047)"><g><path d="M 6.875 -2 L 2.421875 -2 L 1.5625 0 L 0.015625 0 L 3.921875 -8.84375 L 5.453125 -8.84375 L 9.3125 0 L 7.71875 0 Z M 6.3125 -3.328125 L 4.640625 -7.25 L 2.96875 -3.328125 Z M 6.3125 -3.328125 "/></g></g></g><g fill="#000000" fill-opacity="1"><g transform="translate(123.292565, 275.74047)"><g><path d="M 7.0625 0 L 4.15625 -3.90625 L 2.65625 -2.25 L 2.65625 0 L 1.15625 0 L 1.15625 -8.84375 L 2.65625 -8.84375 L 2.65625 -4.265625 L 6.875 -8.84375 L 8.640625 -8.84375 L 5.203125 -5.0625 L 8.859375 0 Z M 7.0625 0 "/></g></g></g><g fill="#000000" fill-opacity="1"><g transform="translate(140.063611, 275.74047)"><g><path d="M 4.796875 -2.9375 L 4.796875 0 L 3.3125 0 L 3.3125 -2.890625 L 0.015625 -8.84375 L 1.515625 -8.84375 L 4.046875 -4.53125 L 6.515625 -8.84375 L 8.046875 -8.84375 Z M 4.796875 -2.9375 "/></g></g></g><g fill="#000000" fill-opacity="1"><g transform="translate(155.817639, 275.74047)"><g/></g></g><g fill="#000000" fill-opacity="1"><g transform="translate(166.777584, 275.74047)"><g/></g></g><g fill="#000000" fill-opacity="1"><g transform="translate(177.743423, 275.74047)"><g><path d="M 4.0625 -8.90625 C 5.21875 -8.90625 6.253906 -8.601562 7.171875 -8 L 6.546875 -6.6875 C 5.648438 -7.238281 4.785156 -7.515625 3.953125 -7.515625 C 3.503906 -7.515625 3.148438 -7.429688 2.890625 -7.265625 C 2.640625 -7.109375 2.515625 -6.878906 2.515625 -6.578125 C 2.515625 -6.285156 2.628906 -6.035156 2.859375 -5.828125 C 3.097656 -5.628906 3.394531 -5.476562 3.75 -5.375 C 4.101562 -5.28125 4.488281 -5.160156 4.90625 -5.015625 C 5.320312 -4.867188 5.703125 -4.710938 6.046875 -4.546875 C 6.398438 -4.378906 6.691406 -4.117188 6.921875 -3.765625 C 7.160156 -3.421875 7.28125 -3 7.28125 -2.5 C 7.28125 -1.726562 6.96875 -1.109375 6.34375 -0.640625 C 5.726562 -0.179688 4.925781 0.046875 3.9375 0.046875 C 3.269531 0.046875 2.617188 -0.078125 1.984375 -0.328125 C 1.347656 -0.578125 0.796875 -0.921875 0.328125 -1.359375 L 0.96875 -2.640625 C 1.414062 -2.222656 1.90625 -1.90625 2.4375 -1.6875 C 2.976562 -1.46875 3.488281 -1.359375 3.96875 -1.359375 C 4.488281 -1.359375 4.894531 -1.453125 5.1875 -1.640625 C 5.476562 -1.828125 5.625 -2.085938 5.625 -2.421875 C 5.625 -2.722656 5.503906 -2.976562 5.265625 -3.1875 C 5.035156 -3.394531 4.742188 -3.546875 4.390625 -3.640625 C 4.035156 -3.742188 3.648438 -3.863281 3.234375 -4 C 2.816406 -4.132812 2.429688 -4.28125 2.078125 -4.4375 C 1.734375 -4.59375 1.441406 -4.84375 1.203125 -5.1875 C 0.960938 -5.539062 0.84375 -5.960938 0.84375 -6.453125 C 0.84375 -7.203125 1.132812 -7.796875 1.71875 -8.234375 C 2.3125 -8.679688 3.09375 -8.90625 4.0625 -8.90625 Z M 4.0625 -8.90625 "/></g></g></g><g fill="#000000" fill-opacity="1"><g transform="translate(193.301717, 275.74047)"><g><path d="M 8.828125 0 L 7.375 0 L 2.65625 -6.34375 L 2.65625 0 L 1.15625 0 L 1.15625 -8.84375 L 2.625 -8.84375 L 7.375 -2.484375 L 7.375 -8.84375 L 8.828125 -8.84375 Z M 8.828125 0 "/></g></g></g><g fill="#000000" fill-opacity="1"><g transform="translate(211.007599, 275.74047)"><g><path d="M 7.484375 -7.515625 L 2.65625 -7.515625 L 2.65625 -5.125 L 6.984375 -5.125 L 6.984375 -3.78125 L 2.65625 -3.78125 L 2.65625 -1.34375 L 7.640625 -1.34375 L 7.640625 0 L 1.15625 0 L 1.15625 -8.84375 L 7.484375 -8.84375 Z M 7.484375 -7.515625 "/></g></g></g><g fill="#000000" fill-opacity="1"><g transform="translate(226.995414, 275.74047)"><g><path d="M 6.875 -2 L 2.421875 -2 L 1.5625 0 L 0.015625 0 L 3.921875 -8.84375 L 5.453125 -8.84375 L 9.3125 0 L 7.71875 0 Z M 6.3125 -3.328125 L 4.640625 -7.25 L 2.96875 -3.328125 Z M 6.3125 -3.328125 "/></g></g></g><g fill="#000000" fill-opacity="1"><g transform="translate(244.019123, 275.74047)"><g><path d="M 5.078125 -8.890625 C 5.703125 -8.890625 6.3125 -8.769531 6.90625 -8.53125 C 7.5 -8.289062 8.007812 -7.953125 8.4375 -7.515625 L 7.578125 -6.4375 C 7.253906 -6.78125 6.875 -7.050781 6.4375 -7.25 C 6 -7.457031 5.554688 -7.5625 5.109375 -7.5625 C 4.222656 -7.5625 3.472656 -7.257812 2.859375 -6.65625 C 2.253906 -6.050781 1.953125 -5.316406 1.953125 -4.453125 C 1.953125 -3.578125 2.253906 -2.835938 2.859375 -2.234375 C 3.472656 -1.628906 4.222656 -1.328125 5.109375 -1.328125 C 6.023438 -1.328125 6.847656 -1.675781 7.578125 -2.375 L 8.453125 -1.390625 C 8.003906 -0.941406 7.472656 -0.585938 6.859375 -0.328125 C 6.253906 -0.0664062 5.644531 0.0625 5.03125 0.0625 C 3.726562 0.0625 2.632812 -0.367188 1.75 -1.234375 C 0.875 -2.097656 0.4375 -3.164062 0.4375 -4.4375 C 0.4375 -5.695312 0.882812 -6.753906 1.78125 -7.609375 C 2.675781 -8.460938 3.773438 -8.890625 5.078125 -8.890625 Z M 5.078125 -8.890625 "/></g></g></g><g fill="#000000" fill-opacity="1"><g transform="translate(260.524884, 275.74047)"><g><path d="M 7.0625 0 L 4.15625 -3.90625 L 2.65625 -2.25 L 2.65625 0 L 1.15625 0 L 1.15625 -8.84375 L 2.65625 -8.84375 L 2.65625 -4.265625 L 6.875 -8.84375 L 8.640625 -8.84375 L 5.203125 -5.0625 L 8.859375 0 Z M 7.0625 0 "/></g></g></g><g fill="#000000" fill-opacity="1"><g transform="translate(277.295936, 275.74047)"><g><path d="M 7.484375 -7.515625 L 2.65625 -7.515625 L 2.65625 -5.125 L 6.984375 -5.125 L 6.984375 -3.78125 L 2.65625 -3.78125 L 2.65625 -1.34375 L 7.640625 -1.34375 L 7.640625 0 L 1.15625 0 L 1.15625 -8.84375 L 7.484375 -8.84375 Z M 7.484375 -7.515625 "/></g></g></g><g fill="#000000" fill-opacity="1"><g transform="translate(293.283755, 275.74047)"><g><path d="M 6.78125 0 L 5.15625 -2.6875 C 5.070312 -2.675781 4.9375 -2.671875 4.75 -2.671875 L 2.65625 -2.671875 L 2.65625 0 L 1.15625 0 L 1.15625 -8.84375 L 4.75 -8.84375 C 5.882812 -8.84375 6.757812 -8.578125 7.375 -8.046875 C 8 -7.523438 8.3125 -6.785156 8.3125 -5.828125 C 8.3125 -5.117188 8.15625 -4.519531 7.84375 -4.03125 C 7.53125 -3.539062 7.078125 -3.179688 6.484375 -2.953125 L 8.46875 0 Z M 2.65625 -4 L 4.75 -4 C 6.1875 -4 6.90625 -4.597656 6.90625 -5.796875 C 6.90625 -6.941406 6.1875 -7.515625 4.75 -7.515625 L 2.65625 -7.515625 Z M 2.65625 -4 "/></g></g></g><g fill="#000000" fill-opacity="1"><g transform="translate(310.117979, 275.74047)"><g><path d="M 4.0625 -8.90625 C 5.21875 -8.90625 6.253906 -8.601562 7.171875 -8 L 6.546875 -6.6875 C 5.648438 -7.238281 4.785156 -7.515625 3.953125 -7.515625 C 3.503906 -7.515625 3.148438 -7.429688 2.890625 -7.265625 C 2.640625 -7.109375 2.515625 -6.878906 2.515625 -6.578125 C 2.515625 -6.285156 2.628906 -6.035156 2.859375 -5.828125 C 3.097656 -5.628906 3.394531 -5.476562 3.75 -5.375 C 4.101562 -5.28125 4.488281 -5.160156 4.90625 -5.015625 C 5.320312 -4.867188 5.703125 -4.710938 6.046875 -4.546875 C 6.398438 -4.378906 6.691406 -4.117188 6.921875 -3.765625 C 7.160156 -3.421875 7.28125 -3 7.28125 -2.5 C 7.28125 -1.726562 6.96875 -1.109375 6.34375 -0.640625 C 5.726562 -0.179688 4.925781 0.046875 3.9375 0.046875 C 3.269531 0.046875 2.617188 -0.078125 1.984375 -0.328125 C 1.347656 -0.578125 0.796875 -0.921875 0.328125 -1.359375 L 0.96875 -2.640625 C 1.414062 -2.222656 1.90625 -1.90625 2.4375 -1.6875 C 2.976562 -1.46875 3.488281 -1.359375 3.96875 -1.359375 C 4.488281 -1.359375 4.894531 -1.453125 5.1875 -1.640625 C 5.476562 -1.828125 5.625 -2.085938 5.625 -2.421875 C 5.625 -2.722656 5.503906 -2.976562 5.265625 -3.1875 C 5.035156 -3.394531 4.742188 -3.546875 4.390625 -3.640625 C 4.035156 -3.742188 3.648438 -3.863281 3.234375 -4 C 2.816406 -4.132812 2.429688 -4.28125 2.078125 -4.4375 C 1.734375 -4.59375 1.441406 -4.84375 1.203125 -5.1875 C 0.960938 -5.539062 0.84375 -5.960938 0.84375 -6.453125 C 0.84375 -7.203125 1.132812 -7.796875 1.71875 -8.234375 C 2.3125 -8.679688 3.09375 -8.90625 4.0625 -8.90625 Z M 4.0625 -8.90625 "/></g></g></g><g fill="#000000" fill-opacity="1"><g transform="translate(93.298379, 242.740465)"><g><path d="M 45.746094 -14.964844 C 35.296875 -14.964844 26.261719 -20.191406 25.695312 -31.625 L 4.234375 -31.625 C 4.375 -8.1875 23.71875 2.257812 44.898438 2.257812 C 64.523438 2.257812 84.710938 -6.070312 84.710938 -28.660156 C 84.710938 -65.230469 29.226562 -52.945312 29.226562 -70.027344 C 29.226562 -77.230469 37.554688 -80.054688 43.484375 -80.054688 C 54.074219 -80.054688 59.863281 -76.804688 60.992188 -66.78125 L 81.464844 -66.78125 C 80.757812 -88.664062 62.96875 -97.417969 43.203125 -97.417969 C 25.695312 -97.417969 7.339844 -88.101562 7.339844 -68.335938 C 7.339844 -32.898438 62.828125 -44.898438 62.828125 -26.261719 C 62.828125 -17.648438 52.378906 -14.964844 45.746094 -14.964844 Z M 45.746094 -14.964844 "/></g></g></g></svg>